<?xml version="1.0" encoding="utf-8"?>
<!-- Generator: Adobe Illustrator 27.5.0, SVG Export Plug-In . SVG Version: 6.00 Build 0)  -->
<svg version="1.1" xmlns="http://www.w3.org/2000/svg" xmlns:xlink="http://www.w3.org/1999/xlink" x="0px" y="0px"
	 viewBox="0 0 500 500" style="enable-background:new 0 0 500 500;" xml:space="preserve">
<g id="BACKGROUND">
	<rect style="fill:#FFFFFF;" width="500" height="500"/>
</g>
<g id="OBJECTS">
	<g>
		<path d="M118.247,306.659c-0.16-0.033-16-3.457-26.255-13.285c-0.834,0.532-1.836,0.818-2.981,0.818
			c-0.806,0-1.682-0.144-2.601-0.411c0.818,1.752,1.002,3.352,0.545,4.789c-1.011,3.178-4.846,4.591-6.853,5.124
			c3.3,2.147,15.033,8.774,37.47,11.461c0.007,0.001,0.012,0.005,0.018,0.006c0.467-2.94,0.769-5.75,0.765-8.491
			C118.319,306.67,118.283,306.667,118.247,306.659z"/>
		<path d="M73.509,342.267c5.813-0.063,11.433-2.892,13.769-5.874c0.703-0.898,1.453-2.241,1.029-3.537
			c-1.054-3.224-10.544-4.142-14.402-4.24c-1.366,1.222-2.806,2.26-3.718,2.878c2.018,0.889,6.404,3.073,7.075,5.526
			c0.209,0.762,0.049,1.511-0.46,2.167C76.087,340.105,74.885,341.181,73.509,342.267z"/>
		<path d="M85.634,292.377c2.869,1.141,5.256,0.945,6.56-0.558c1.622-1.868,1.314-5.412-0.737-9.113
			c-0.921,0.334-2.045,0.552-3.448,0.552c-1.265,0-2.761-0.186-4.494-0.592c0.35,2.593,0.191,4.838-0.997,5.9
			C83.824,289.897,84.877,291.171,85.634,292.377z"/>
		<path d="M79.949,270.586c0.817,2.013,2.622,6.738,3.382,10.927c4.783,1.205,8.241,0.764,9.992-1.308
			c1.724-2.04,1.689-5.641-0.052-9.681C88.921,271.269,82.458,270.81,79.949,270.586z"/>
		<path d="M59.01,266.296c0.105,0.075,0.186,0.184,0.215,0.32c2.734,12.859,12.435,20.659,12.996,21.1
			c0.582,0.235,5.321,2.043,9.245,0.271c2.859-1.288-0.162-11.418-2.781-17.632c-1.311-0.675-8.913-4.897-11.891-13.291
			C63.976,259.815,61.351,262.882,59.01,266.296z"/>
		<path d="M68.537,292.563c3.217,2.108,10.378,7.124,10.807,10.205c1.592-0.376,5.655-1.604,6.584-4.528
			c0.761-2.397-0.722-5.469-4.376-9.127c-3.582,1.433-7.513,0.387-9.103-0.161C72.219,290.773,70.907,291.983,68.537,292.563z"/>
		<path d="M97.094,268.914c-0.523,0.628-1.488,1.083-2.751,1.392c1.2,2.873,1.574,5.553,1.123,7.717
			c1.464,0.542,6.682,2.256,9.227,0.179c0.791-0.645,0.836-1.843,0.493-3.234c-0.005-0.015-0.007-0.03-0.011-0.045
			c-0.63-2.5-2.513-5.611-3.722-7.332C100.234,268.336,98.776,268.777,97.094,268.914z"/>
		<path d="M67.722,256.479c2.842,8.338,10.753,12.557,11.539,12.958c5.999,0.614,15.867,0.799,17.11-1.311
			c1.196-2.025-4.645-7.197-8.607-9.981c-0.004-0.003-0.005-0.007-0.009-0.009c-0.002-0.001-0.004-0.001-0.006-0.002
			c-6.541-4.947-8.493-9.777-8.805-10.651c-3.909,2.523-7.754,5.431-11.333,8.809C67.659,256.345,67.698,256.408,67.722,256.479z"/>
		<path d="M117.951,301.803c-0.033,0-0.066-0.003-0.1-0.01c-8.496-1.597-11.922-7.358-15.235-12.929
			c-2.053-3.451-4.187-7.001-7.518-9.618c-0.244,0.608-0.546,1.175-0.953,1.655c-0.412,0.487-0.972,0.966-1.705,1.367
			c2.266,4.126,2.506,8.023,0.566,10.257c-0.053,0.061-0.12,0.102-0.175,0.16c9.558,9.096,24.03,12.557,25.504,12.891
			c-0.042-1.306-0.146-2.569-0.309-3.786C118.002,301.793,117.977,301.803,117.951,301.803z"/>
		<path d="M98.522,347.857c5.949,3.577,8.527,6.174,8.561,8.614c0,0.013-0.002,0.026-0.002,0.04l6.473,0.788
			c-0.63-6.611-0.498-12.526,0.01-17.911C111.013,340.756,103.315,345.127,98.522,347.857z"/>
		<path d="M89.47,333.155c0.165,1.22-0.288,2.555-1.343,3.902c-0.619,0.79-1.449,1.577-2.443,2.313
			c3.183,0.097,9.483,0.64,10.852,3.427c0.639,1.301,0.252,3.255-0.521,5.249c1.499-0.855,3.675-2.095,5.999-3.415
			c0.268-1.066,1.5-6.352,0.457-9.618C101.712,332.637,94.333,332.603,89.47,333.155z"/>
		<path d="M78.959,304.233c-0.478,0.704-1.253,1.257-2.158,1.69c2.116,2.22,4.838,5.543,5.824,8.765
			c2.26,0.786,13.785,4.963,14.582,8.699c8.257,3.438,18.116,2.563,18.215,2.552c0.051-0.003,0.1,0.009,0.149,0.019
			c0.657-3.442,1.326-6.663,1.846-9.738C93.092,313.304,81.451,305.986,78.959,304.233z"/>
		<path d="M74.998,327.578c3.438,0.169,12.006,0.929,14.036,4.315c2.396-1.658,7.174-5.507,7.139-8.116
			c-0.031-2.307-7.802-5.89-13.255-7.842c0.131,0.848,0.122,1.679-0.084,2.467c-0.547,2.083-2.341,3.607-5.309,4.549
			C77.602,324.426,76.463,326.082,74.998,327.578z"/>
		<path d="M106.006,356.486c-0.029-2.061-2.673-4.537-8.557-8.017c-0.897,0.511-1.643,0.937-2.154,1.229
			c-1.039,2.179-2.332,4.2-3.036,5.24c0.855,0.234,1.607,0.554,2.189,0.983c0.773,0.569,1.222,1.295,1.335,2.157
			c0.106,0.806-0.105,1.692-0.532,2.617c1.289,0.833,2.348,1.826,3.165,2.975C103.167,360.68,106.036,358.661,106.006,356.486z"/>
		<path d="M357.422,236.065l12.241,8.15c-4.787-9.085-10.129-17.69-16.003-25.774L357.422,236.065z"/>
		<path d="M112.242,327.136c-3.599,0-9.579-0.416-15.08-2.617c-0.576,2.708-4.171,5.775-6.363,7.425
			c3.871-0.32,11.653-0.532,12.698,2.742c0.937,2.939,0.237,7.164-0.208,9.222c4.208-2.386,8.575-4.846,10.082-5.639
			c0.098-0.051,0.202-0.06,0.304-0.05c0.423-4.005,1.044-7.71,1.696-11.194C114.972,327.058,113.85,327.136,112.242,327.136z"/>
		<path d="M114.665,366.024c0.039-0.009,0.077-0.003,0.116-0.004c-0.492-2.65-0.855-5.193-1.117-7.645
			c-0.021,0.003-0.04,0.011-0.061,0.011s-0.044-0.001-0.066-0.004l-6.613-0.805c-0.68,2.281-3.569,4.258-7.931,7.001
			c0.364,0.643,0.661,1.327,0.893,2.053C101.468,366.804,108.372,367.44,114.665,366.024z"/>
		<path d="M52.008,281.264c0.076,0.099,7.637,9.849,15.084,10.47c3.705-0.494,4.294-2.054,4.317-3.291
			c-1.427-1.165-10.311-8.85-13.113-21.111c-2.657,4.064-4.879,8.639-6.532,13.764C51.856,281.13,51.943,281.181,52.008,281.264z"/>
		<path d="M193.785,110.09c6.695-0.804,16.99-3.2,16.693-6.321c-0.408-4.285-4.325-7.507-4.817-7.897
			c-0.905-0.364-12.388-4.783-24.768-0.833c-0.139,0.043-0.281,0.026-0.402-0.034c-1.807,3.725-3.159,7.529-4.152,11.341
			C185.111,104.771,192.551,109.286,193.785,110.09z"/>
		<path d="M205.892,94.805c1.063-0.633,2.126-1.919,0.717-5.386c-4.232-6.156-16.443-7.892-16.566-7.909
			c-0.113-0.015-0.206-0.072-0.284-0.144c-3.633,3.975-6.487,8.178-8.702,12.5C193.068,90.234,204.133,94.131,205.892,94.805z"/>
		<path d="M187.66,124.016c0.004,0.002,0.006,0.005,0.009,0.007c0.003,0.001,0.005,0.001,0.008,0.002
			c4.382,2.061,11.768,4.572,12.934,2.531c1.215-2.126-3.833-10.605-7.339-15.512c-0.738-0.483-8.321-5.265-16.974-3.602
			c-0.079,0.014-0.157,0.008-0.23-0.011c-1.162,4.784-1.776,9.57-2.031,14.217C174.934,121.488,180.103,120.78,187.66,124.016z"/>
		<path d="M206.847,95.458c1.264,1.11,4.121,4.005,4.651,7.826c4.989,1.364,8.391,1.128,10.096-0.72
			c2.08-2.255,1.134-6.393,0.67-7.963c-2.889,1.155-10.794-2.581-14.219-4.331C208.717,92.616,208.316,94.355,206.847,95.458z"/>
		<path d="M229.82,74.244c2.09,3.437,6.099,8.511,8.32,7.928c1.286-0.343,2.198-2.577,2.777-5.149
			c0.001-0.005,0.002-0.009,0.003-0.014c0.427-1.903,0.672-3.988,0.748-5.632c-0.007-0.188-0.316-6.86-4.202-18.108
			c-3.319,1.206-6.686,2.553-10.102,4.055C227.609,57.81,230.896,64.526,229.82,74.244z"/>
		<path d="M228.73,74.337c0-0.004,0.003-0.006,0.004-0.009c0-0.005-0.002-0.01-0.001-0.015c1.121-9.64-2.309-16.46-2.344-16.529
			c-0.004-0.007-0.003-0.015-0.006-0.022c-7.193,3.217-14.605,7.125-22.262,11.886c2.037,0.965,12.713,6.303,17.333,14.07
			C226.016,82.984,228.336,79.998,228.73,74.337z"/>
		<path d="M301.161,42.786c-2.054,0.045-4.128,0.103-6.22,0.181c-0.09,0.943-0.552,4.524-2.636,9.948
			c1.315,0.893,6.198,4.099,10.695,5.682c0.056,0.009,0.107,0.03,0.157,0.056c2.129,0.733,4.161,1.091,5.671,0.648
			c4.716-1.375,4.536-5.397,4.476-6.031c-2.246-5.258-11.844-9.634-11.94-9.678c-0.271-0.122-0.392-0.441-0.27-0.712
			C301.111,42.843,301.138,42.817,301.161,42.786z"/>
		<path d="M186.052,133.152c-0.897-3.327,0.222-7.008,0.703-8.338c-7.538-3.096-12.577-2.097-12.629-2.086
			c-0.048,0.009-0.093,0.003-0.14,0c-0.216,4.967-0.038,9.76,0.297,14.208c0.088-0.007,0.178,0,0.264,0.039
			C181.073,139.945,185.313,134.248,186.052,133.152z"/>
		<path d="M125.725,251.454l5.626-8.575l-1.92-20.838c-1.196,3.289-2.357,6.777-3.531,10.517
			C125.477,239.288,125.432,245.55,125.725,251.454z"/>
		<path d="M49.015,298.289c0.112,0.081,11.286,8.098,20.815,8.098c0.008,0,0.015,0,0.023,0c1.263-0.071,3.806-0.395,5.791-1.146
			c0.017-0.007,0.033-0.012,0.05-0.018c1.241-0.476,2.256-1.12,2.586-1.98c0.699-1.819-6.202-7.182-11.377-10.45
			c-7.223-0.671-14.142-8.861-15.503-10.56c-1.446,4.812-2.382,10.11-2.665,15.965C48.833,298.204,48.929,298.228,49.015,298.289z"
			/>
		<path d="M162.188,322.021c5.26-13.213,13.184-26.06,24.19-39.211l-13.204-34.24c-2.475,0.251-5.04,0.395-7.734,0.395
			c-9.352,0-20.082-1.524-32.496-4.586l-7.001,10.671c0.479,6.252,1.371,12.082,2.71,17.539
			c3.767,12.155,9.738,25.502,18.088,40.418L162.188,322.021z"/>
		<path d="M201.082,133.605c0.736-1.804,0.67-3.77-0.181-5.851c-2.78,1.927-10.822-1.459-13.157-2.513
			c-0.683,1.906-2.642,8.593,2.289,11.516c0.005,0.003,0.009,0.007,0.014,0.009c0.002,0.001,0.004,0.003,0.006,0.004
			c1.432,0.851,2.695,1.933,3.756,3.155C195.063,139.41,199.558,137.338,201.082,133.605z"/>
		<path d="M66.814,318.406c2.978,0.199,9.04,0.919,10.43,3.506c2.566-0.823,4.104-2.091,4.547-3.783
			c0.986-3.759-3.258-8.881-6.063-11.764c-1.877,0.666-3.983,0.94-5.104,1.043C72.09,311.652,70.84,315.267,66.814,318.406z"/>
		<path d="M117.807,378.603c-0.258-0.998-0.531-2.017-0.82-3.063c-0.817-2.95-1.472-5.775-2.006-8.501
			c-0.027,0.011-0.05,0.029-0.079,0.035c-3.237,0.73-6.58,0.938-9.33,0.938c-2.425,0-4.366-0.159-5.389-0.265
			c1.388,6.469-2.348,13.939-3.829,16.556c15.676-1.917,21.228-5.59,21.283-5.628C117.69,378.638,117.748,378.618,117.807,378.603z"
			/>
		<path d="M131.066,217.736l0.051,0.094c0.071,0.129,0.115,0.272,0.128,0.42l2.215,24.046c15.885,3.918,28.908,5.261,39.781,4.116
			c2.385-3.99,18.763-30.753,35.922-42.962l-7.949-32.926c-7.639,1.507-15.653,1.453-23.838-0.145
			c-4.81,2.074-9.505,4.418-14.069,7.029C145.898,189.85,137.656,201.166,131.066,217.736z"/>
		<path d="M215.828,135.193l-4.902-3.255c-1.567,0.407-3.398,0.529-5.001,0.529c-1.417,0-2.652-0.093-3.362-0.16
			c-0.097,0.581-0.257,1.151-0.485,1.71c-1.007,2.461-3.095,4.235-4.918,5.388c3.897-0.457,9.969-0.471,13.428,2.997
			c0.313-0.873,0.676-1.754,1.12-2.642C212.751,137.676,214.149,136.238,215.828,135.193z"/>
		<path d="M201.59,168.241l10.975-7.699c-0.717,0.054-1.432,0.1-2.15,0.163c-10.092,1.669-19.886,4.393-29.271,8.12
			C188.167,169.826,195.027,169.635,201.59,168.241z"/>
		<path d="M381.604,363.337c-0.625,2.598-1.294,5.076-2.002,7.341c-0.005,0.014-0.008,0.028-0.013,0.042
			c-1.058,3.378-2.206,6.254-3.433,8.302l11.245,13.12c6.868-6.418,10.03-15.914,10.909-27.307c-0.005,0-0.009,0-0.013-0.001
			L381.604,363.337z"/>
		<path d="M340.208,430.215c4.522,5.196,8.902,10.415,12.764,14.214c0.007-0.007,0.009-0.016,0.016-0.022
			c3.51-3.162,5.1-7.363,4.726-12.491c-2.301-5.351-5.858-8.337-11.128-9.397C345.937,425.255,343.785,427.884,340.208,430.215z"/>
		<path d="M354.047,424.839c1.846,1.588,3.335,3.693,4.521,6.357c2.57-0.369,5.24-0.488,7.575,0.334
			c0.971-1.099,2.655-5.317,1.428-8.264c-0.996-2.393-3.663-3.313-7.897-2.756C358.554,422.031,356.654,423.503,354.047,424.839z"/>
		<path d="M380.769,420.69c-2.696,2.41-4.132,4.707-4.617,5.582c2.343,1.62,4.427,4.134,4.904,8.024
			c0.006,0.05-0.004,0.096-0.011,0.143c2.987-0.043,6.183,0.23,9.577,0.811C392.843,426.571,382.737,421.57,380.769,420.69z"/>
		<path d="M370.299,436.925c-2.348-5.127-6.88-5.332-11.503-4.673c0.282,5.267-1.405,9.617-5.051,12.92
			c5.771,5.476,12.47,9.407,18.993,11.145c0.006-0.021,0.003-0.043,0.012-0.064C375.361,449.792,374.559,443.469,370.299,436.925z"
			/>
		<path d="M368.565,422.851c0.082,0.197,0.149,0.401,0.211,0.606c0.987,0.141,3.779,0.661,6.467,2.236
			c0.565-1.001,2.067-3.338,4.772-5.768c-0.562-1.398-3.45-7.365-11.236-6.452c-1.233,2.962-2.755,5.278-3.505,6.331
			C367.134,420.48,368.085,421.698,368.565,422.851z"/>
		<path d="M379.988,434.426c-0.455-3.709-2.487-6.034-4.73-7.502c-0.008-0.003-0.016-0.001-0.024-0.005
			c-0.069-0.032-0.127-0.076-0.174-0.129c-2.342-1.472-4.856-2.024-6.052-2.213c0.367,2.817-0.773,5.949-1.836,7.384
			c1.524,0.769,2.852,2.045,3.853,4.03c2.723-0.893,5.723-1.394,8.975-1.523C379.998,434.453,379.989,434.441,379.988,434.426z"/>
		<path d="M338.866,371.425l-28.25,0.001c-3.25,7.593-4.284,17.183-3.151,29.274c6.261,0.046,12.526-0.105,18.78-0.467
			c0.048-0.002,0.091,0.012,0.137,0.015c0.03,0.002,0.058-0.009,0.088-0.004c0.019,0.003,0.034,0.015,0.052,0.019
			c0.025,0.005,0.052,0.001,0.077,0.008c2.679-0.168,25.424-7.051,38.76-14.82C354.344,382.764,345.654,378.158,338.866,371.425z"/>
		<path d="M407.896,428.511c-0.957-1.994-2.156-4.063-3.568-6.272c-2.747-4.297-5.864-6.595-9.406-8.349
			c-0.073,0.15-0.206,0.269-0.382,0.3c-5.772,1.015-9.945,3.352-12.871,5.732c1.758,0.843,5.896,3.108,8.381,6.751
			C391.189,426.37,398.787,424.6,407.896,428.511z"/>
		<path d="M432.483,322.945c-0.962,1.507-3.471,3.691-6.227,4.357c0.607,1.051,2.02,3.197,4.221,4.848
			c0.072,0.025,0.141,0.062,0.2,0.118c0.017,0.017,0.025,0.039,0.039,0.057c2.17,1.551,5.065,2.588,8.674,1.686
			c0.008-0.002,0.015,0.001,0.023-0.001c-1.048-3.083-1.646-6.063-1.79-8.927C435.414,324.874,433.748,324.096,432.483,322.945z"/>
		<path d="M377.105,226.064l-11.413,6.684c2.731,4.559,5.313,9.252,7.743,14.074c0.019,0.028,0.028,0.06,0.045,0.09
			c2.487,4.94,4.815,10.014,6.979,15.217l12.259-6.077c0.201-0.1,0.416-0.112,0.623-0.083c1.493-10.812-3.193-20.946-15.913-30.197
			C377.343,225.887,377.235,225.988,377.105,226.064z"/>
		<path d="M424.518,326.428c0.045,0.001,0.09,0.002,0.135,0.002c3.144,0,6.386-3.006,7.061-4.293
			c-1.597-1.884-2.445-4.422-3.024-6.958c-2.913-0.151-5.411-0.786-7.556-1.939c-0.312,2.914-1.004,5.216-2.022,6.807
			C420.113,324.203,421.928,326.357,424.518,326.428z"/>
		<path d="M416.292,307.108c2.88,4.539,6.943,6.787,12.763,7.015c4.921-1.491,8.273-4.483,9.963-8.892
			c0.004-0.009,0.012-0.016,0.016-0.025c-4.931-2.241-11.374-4.457-17.846-6.813C420.294,302.569,418.613,305.522,416.292,307.108z"
			/>
		<path d="M443.775,325.765c-1.624,0-3.314-0.176-5.062-0.508c0.4,6.813,3.454,14.332,9.104,22.369
			c3.632,5.149,8.433,7.331,14.712,6.681c0.117-0.012,0.226,0.023,0.323,0.08c3.026-5.499-0.492-12.685-0.688-21.701
			c-0.092-4.236-1.672-8.468-4.335-12.411C453.889,323.926,449.178,325.765,443.775,325.765z"/>
		<path d="M443.956,343.656c-1.763-2.96-3.157-5.847-4.191-8.653c-0.037,0.019-0.071,0.044-0.114,0.054
			c-1.001,0.25-1.954,0.362-2.857,0.362c-2.525,0-4.654-0.883-6.387-2.065c-0.64,0.762-2.273,2.928-3.558,6.317
			C428.38,341.193,436.657,348.815,443.956,343.656z"/>
		<path d="M429.757,315.013c1.047,4.553,2.86,8.707,8.411,9.049c7.721,1.641,13.907,0.118,18.999-4.636
			c0.017-0.015,0.037-0.021,0.055-0.034c-3.963-5.466-10.036-10.309-17.219-13.731C438.23,310.25,434.776,313.386,429.757,315.013z"
			/>
		<path d="M415.811,331.069c1.935,7.582,8.516,8.146,10.043,8.173c1.298-3.406,2.95-5.638,3.683-6.526
			c-2.444-1.952-3.932-4.376-4.411-5.236c-0.158,0.012-0.315,0.027-0.473,0.027c-0.056,0-0.109-0.001-0.165-0.002
			c-1.249-0.035-2.727-0.487-4.025-1.98C419.75,326.603,418.134,328.855,415.811,331.069z"/>
		<path d="M234.595,391.163c-0.1-0.021-0.193-0.055-0.282-0.103c-3.037-1.087-5.971-2.213-8.82-3.379v11.778
			c0,0.247-0.097,0.463-0.236,0.644c8.102,6.197,17.199,9.354,27.21,9.715c0.004-0.104,0.006-0.21,0.042-0.314l3.99-11.619
			C248.656,395.809,241.378,393.58,234.595,391.163z"/>
		<path d="M63.966,347.443c0.001-0.001,0.003-0.001,0.004-0.002c0.001,0,0.001-0.001,0.001-0.001
			c0.062-0.037,4.127-2.482,7.623-5.07c0.02-0.019,0.043-0.033,0.065-0.049c1.797-1.334,3.439-2.702,4.292-3.797
			c0.306-0.391,0.391-0.779,0.271-1.218c-0.559-2.044-5.162-4.303-7.154-5.115c-1.169,0.577-7.018,3.275-17.91,5.321
			c-0.002,0-0.005,0-0.007,0.001c0.885,4.964,1.973,9.696,3.215,14.237c0.013-0.004,0.023-0.012,0.037-0.015
			C54.44,351.727,58.231,350.972,63.966,347.443z"/>
		<path d="M79.923,247.017c0.016,0.049,1.644,4.923,8.07,9.937c0.917-1.076,3.559-3.87,6.893-4.74
			c0.584-1.179,3.442-7.691-2.378-11.891c-0.076-0.054-0.126-0.127-0.163-0.206c-4.03,1.912-8.278,4.137-12.485,6.785
			C79.882,246.939,79.909,246.973,79.923,247.017z"/>
		<path d="M106.411,275.753c0.149,1.332-0.093,2.515-1.037,3.285c-2.144,1.748-5.635,1.311-8.05,0.695
			c2.62,2.529,4.443,5.596,6.218,8.581c3.31,5.566,6.445,10.822,14.319,12.378c-1.54-9.427-6.13-16.272-6.443-22.497
			c-0.006,0-0.011,0.005-0.017,0.005c-0.082,0-0.164-0.018-0.242-0.058L106.411,275.753z"/>
		<path d="M88.854,257.601c2.073,1.507,8.995,6.814,8.701,10.182c2.231-0.292,3.972-1.208,5.174-2.743
			c2.49-3.181,2.059-8.105,1.884-9.447c-1.595-0.317-3.169-0.881-4.624-1.709C95.011,251.049,90.171,256.065,88.854,257.601z"/>
		<path d="M73.261,327.728c0.044-0.062,0.097-0.11,0.162-0.145c1.896-1.749,3.323-3.604,2.99-4.867
			c-0.582-2.209-6.986-3.188-11.009-3.299c-7.907,5.748-15.367,6.222-15.914,6.249c0.388,3.712,0.886,7.304,1.483,10.784
			c11.622-2.185,17.564-5.195,17.802-5.318C70.154,330.262,71.826,329.03,73.261,327.728z"/>
		<path d="M75.108,368.251c2.328,0.077,6.09,0.66,7.239,3.488c4.105-2.827,12.867-9.723,12.367-13.52
			c-0.075-0.568-0.371-1.036-0.906-1.431c-3.196-2.356-12.845-0.943-14.268-0.717c-1.58,1.56-3.508,2.992-4.819,3.899
			c1.811,0.149,4.404,0.687,4.829,2.524C79.993,364.416,77.093,366.844,75.108,368.251z"/>
		<path d="M91.124,354.684c0.747-1.078,1.836-2.797,2.778-4.626c-0.042-0.038-0.089-0.067-0.119-0.118
			c-0.148-0.258-0.058-0.587,0.2-0.734c0.015-0.009,0.181-0.103,0.465-0.266c1.042-2.236,1.714-4.453,1.119-5.667
			c-1.205-2.456-8.575-2.885-11.494-2.844c-2.896,1.698-6.703,2.926-10.715,2.926c-0.404,0-0.811-0.019-1.219-0.045
			c-2.183,1.613-4.541,3.142-6.049,4.089c5.401,0.154,16.095,0.866,16.174,4.085c0.025,1.027-0.619,2.184-1.568,3.329
			C83.046,354.507,87.631,354.062,91.124,354.684z"/>
		<path d="M94.812,384.661c-0.075-2.826-4.892-5.885-12.598-8.037c-0.909,2.889-2.831,5.639-3.688,6.774
			c1.7,0.839,6.513,3.344,10.071,6.392C92.651,388.413,94.864,386.599,94.812,384.661z"/>
		<path d="M99.084,367.73c-0.606-2.551-2.073-4.59-4.343-6.082c-2.843,4.729-10.501,10.105-12.106,11.2
			c0.128,0.877,0.065,1.803-0.139,2.736c7.373,2.055,12.03,4.826,13.136,7.777C97.176,380.516,100.461,373.527,99.084,367.73z"/>
		<path d="M126.817,273.909l-12.284-0.217c-0.072-0.001-0.134-0.03-0.202-0.044c-2.8,12.679,2.683,23.082,10.644,32.805
			c0.062-0.051,0.115-0.109,0.189-0.146l12.354-6.124C132.956,290.89,129.444,282.235,126.817,273.909z"/>
		<path d="M58.415,363.966C58.415,363.966,58.415,363.966,58.415,363.966c0.082,0,6.517-0.04,14.329-3.975
			c2.391-1.512,8.506-5.943,8.444-8.48c-0.043-1.774-8.722-2.968-16.795-3.067c-5.589,3.416-9.288,4.247-9.739,4.339
			c1.088,3.877,2.289,7.611,3.583,11.219C58.293,363.982,58.351,363.966,58.415,363.966L58.415,363.966z"/>
		<path d="M164.079,340.828l-2.347-16.58l-12.871-7.511c2.532,4.394,5.253,8.915,8.193,13.589
			C159.098,333.913,161.436,337.41,164.079,340.828z"/>
		<path d="M89.514,390.613c1.545,1.469,2.736,3.034,3.106,4.585c0.409,1.711,0.283,3.106-0.104,4.229
			c2.173,2.157,4.285,4.006,6.303,5.58c3.415-2.345,5.266-5.365,5.474-8.994c0.273-4.747-2.372-9.257-4.434-11.101
			c-1.268,0.191-2.619,0.371-4.045,0.538C95.495,387.03,94.015,388.975,89.514,390.613z"/>
		<path d="M205.735,375.664c8.902-0.044,16.095-2.02,22.602-6.221c11.132-8.834,21.224-20.064,29.934-33.311l-24.09-36.92
			c-14.163-1.766-29.725-6.765-46.278-14.864c-11.037,13.214-18.921,26.1-24.07,39.36l2.884,20.37
			c7.647,9.078,17.522,17.613,29.878,25.836C199.529,371.921,202.573,373.833,205.735,375.664z"/>
		<path d="M78.499,362.736c-0.352-1.523-3.977-1.786-5.362-1.74c-7.362,3.686-13.372,4.015-14.525,4.044
			c1.177,3.219,2.42,6.344,3.72,9.378c0.851-0.719,5.746-4.716,10.697-6.081C75.506,366.81,78.811,364.086,78.499,362.736z"/>
		<path d="M77.271,383.254C77.271,383.254,77.272,383.254,77.271,383.254c0.002-0.002,0.002-0.003,0.003-0.004
			c0.052-0.063,5.159-6.354,4.255-10.546c-0.833-3.863-7.677-3.385-8.171-3.342c-5.106,1.393-10.396,5.934-10.449,5.98
			c-0.042,0.036-0.089,0.06-0.137,0.081c2.288,5.261,4.728,10.269,7.227,15.09C70.879,389.874,73.738,387.64,77.271,383.254z"/>
		<path d="M91.572,395.449c-0.366-1.53-1.687-3.118-3.382-4.606c-0.01-0.007-0.017-0.016-0.027-0.024
			c-3.607-3.156-8.889-5.852-10.326-6.558c-3.678,4.497-6.558,6.672-7.334,7.217c0.97,1.856,1.946,3.686,2.925,5.493
			c0.015-0.035,0.024-0.071,0.048-0.103c0.176-0.241,0.512-0.294,0.753-0.119c0.086,0.063,8.644,6.237,14.324,5.578
			C89.136,402.062,92.713,400.223,91.572,395.449z"/>
		<path d="M309.13,60.336c-1.53,0.446-3.479,0.187-5.521-0.428c0.807,4.724-0.15,6.974-1.365,8.033
			c0.563,1.325,1.065,2.574,1.528,3.774c2.619,0.884,7.855,0.95,11.849-1.643c3.049-1.979,4.756-5.083,5.101-9.211
			c-2.368-0.973-5.02-1.892-7.969-2.711C311.968,59.043,310.818,59.844,309.13,60.336z"/>
		<path d="M236.82,89.116c1.25-1.223,1.589-3.187,1.033-5.823c-2.929,0.073-6.564-4.835-8.212-7.324
			c-0.732,5.053-3.252,7.93-7.665,8.76c0.466,1.025,1.271,2.989,1.623,4.95C227.492,90.686,234.044,91.835,236.82,89.116z"/>
		<path d="M329.986,49.992c0.3,1.223-0.023,2.393-0.96,3.479c-3.931,4.549-12.064,1.59-14.643,0.488
			c-0.04,0.812-0.239,2.055-0.957,3.263c19.178,5.425,25.511,14.866,26.019,15.669c2.927-4.24,4.106-8.751,5.346-13.534
			c2.496-9.626-5.471-14.573-22.608-16.12C324.598,44.377,329.233,46.928,329.986,49.992z"/>
		<path d="M350.169,195.848l-7.488,5.539c3.37,3.773,6.605,7.69,9.705,11.742c0.033,0.039,0.064,0.075,0.091,0.118
			c4.299,5.628,8.334,11.519,12.096,17.659l11.445-6.702c0.106-0.063,0.22-0.093,0.335-0.116
			c-3.003-15.89-12.869-24.057-25.83-28.742C350.451,195.538,350.345,195.717,350.169,195.848z"/>
		<path d="M207.445,88.741c5.403,2.876,13.473,6.207,14.705,4.701c0.583-0.713,0.639-1.914,0.438-3.227
			c-0.004-0.018-0.007-0.034-0.009-0.053c-0.331-2.095-1.308-4.461-1.872-5.594c-4.711-8.291-17.234-14.035-17.36-14.093
			c-0.098-0.044-0.168-0.119-0.223-0.204c-4.949,3.148-9.099,6.586-12.564,10.228C192.709,80.84,203.286,82.794,207.445,88.741z"/>
		<path d="M100.911,138.897H88.636v14.04l15.366,10.633c1.619-4.381,2.161-8.998,1.588-13.74L100.911,138.897z"/>
		<path d="M378.855,263.87c-2.212-5.383-4.608-10.62-7.168-15.72l-14.899-9.919c-10.921,17.851-24.783,30.917-41.232,38.86
			l9.858,29.297c15.985,4.42,26.987,11.227,28.916,12.47c12.715-0.498,22.07-3.46,29.357-9.293l-1.576-14.907c0,0,0,0,0,0
			c0,0,0,0,0-0.001L378.855,263.87z"/>
		<path d="M38.841,137.82l8.691,0.342c-0.109-0.904,0.121-1.798,0.732-2.664c1.667-2.364,4.706-2.904,6.72-2.981
			c-3.268-2.157-10.645-7.256-14.884-11.99c-0.198-0.222-0.179-0.563,0.042-0.761c0.221-0.2,0.562-0.18,0.761,0.041
			c4.436,4.955,12.422,10.346,15.255,12.19c-0.222-1.62-0.349-4.402,1.078-5.813c0.649-0.641,1.52-0.926,2.597-0.854
			c-1.13-2.155-3.765-7.689-5.039-14.579c-4.297,0.493-9.034,1.777-11.636,4.866c-5.545,6.584-8.664,10.406-6.585,16.293
			c0.76,2.152,1.473,4.202,2.072,5.942C38.708,137.83,38.774,137.817,38.841,137.82z"/>
		<path d="M60.744,135.277c0.313-0.053,4.161-0.684,9.037-0.987c-1.221-1.929-4.567-6.58-9.081-7.728
			c-1.22-0.311-2.132-0.179-2.707,0.389c-1.337,1.321-0.861,4.808-0.564,6.041c0.004,0.016-0.001,0.031,0.002,0.047
			c0.006,0.042,0.009,0.084,0.005,0.128c-0.002,0.028-0.007,0.054-0.014,0.081c-0.004,0.017-0.003,0.035-0.009,0.052
			c-0.007,0.021-0.022,0.037-0.031,0.056c-0.011,0.023-0.022,0.045-0.037,0.066c-0.027,0.04-0.059,0.073-0.095,0.104
			c-0.012,0.011-0.023,0.023-0.036,0.032c-0.106,0.076-0.237,0.115-0.377,0.096c-0.053-0.007-5.485-0.664-7.693,2.466
			c-0.521,0.739-0.69,1.455-0.515,2.19c0.426,1.796,2.731,3.046,2.755,3.058c0.005,0.003,0.007,0.009,0.012,0.012
			c0.007,0.004,0.016,0.004,0.023,0.009c3.896,2.477,7.72,4.434,11.4,5.882c-1.636-5.686-2.456-10.976-2.517-11.38
			C60.257,135.598,60.454,135.325,60.744,135.277z"/>
		<path d="M279.309,393.957l-15.504,3.107c6.853,1.101,13.752,1.955,20.679,2.557L279.309,393.957z"/>
		<path d="M211.266,202.976c11.592,2.196,25.371,7.938,43.199,18.002c5.939-12.357,16.817-24.065,32.386-34.822l-6.658-19.155
			c-21.556-5.684-42.399-7.893-63.491-6.73l-13.467,9.446L211.266,202.976z"/>
		<path d="M228.281,371.973c-5.67,3.385-11.779,5.24-18.942,5.717c7.242,3.934,15.129,7.458,23.822,10.659L228.281,371.973z"/>
		<path d="M245.172,158.595v-12.48c0-0.195,0.065-0.368,0.156-0.525c-10.99-6.327-20.051-5.16-28.096-0.045
			c0.108,0.168,0.186,0.356,0.186,0.57v11.962C226.699,157.604,235.922,157.769,245.172,158.595z"/>
		<path d="M383.955,312.091c-7.355,5.477-16.608,8.316-28.844,8.885v26.922c10.566,4.097,18.183,10.523,23.194,19.582
			c4.285-15.34,7.01-38.658,7.223-40.516L383.955,312.091z"/>
		<path d="M373.934,378.525c1.242-1.839,2.409-4.671,3.49-8.076c-4.706-9.592-12.237-16.306-22.984-20.5l-13.738,20.256
			c6.88,6.694,15.811,11.162,27.262,13.633C370.64,382.068,372.752,380.276,373.934,378.525z"/>
		<path d="M308.596,370.669c-6.087-4.834-11.293-11.634-15.813-20.734c-1.749,14.846-5.629,28.84-11.816,42.643l6.675,7.305
			c5.873,0.446,11.764,0.711,17.659,0.798C304.172,388.374,305.253,378.539,308.596,370.669z"/>
		<path d="M89.493,172.816c1.194-0.345,9.513-2.918,13.984-8.3l-15.424-10.672l-14.619,7.365
			C77.678,167.098,83.073,171.009,89.493,172.816z"/>
		<path d="M314.227,52.708c1.274,0.584,10.19,4.448,13.984,0.057c0.705-0.816,0.944-1.639,0.728-2.516
			c-0.87-3.55-8.523-6.618-8.6-6.649c-0.224-0.089-0.348-0.311-0.332-0.539c-4.558-0.323-9.698-0.432-15.419-0.341
			c-0.813,0.013-1.63,0.028-2.448,0.044C303.869,43.583,311.939,47.625,314.227,52.708z"/>
		<path d="M339.562,429.353c3.592-2.327,5.668-4.92,6.091-7.565c0-0.002-0.001-0.005,0-0.007c0.001-0.004,0.004-0.008,0.005-0.012
			c0.064-0.405,0.094-0.811,0.079-1.218c-0.115-3.145-2.599-6.207-6.996-8.621c-0.261-0.143-0.357-0.471-0.214-0.731
			c0.143-0.263,0.473-0.356,0.731-0.214c4.743,2.605,7.426,5.989,7.555,9.526c0.011,0.311-0.02,0.621-0.047,0.931
			c2.45,0.486,4.555,1.358,6.35,2.657c4.346-2.137,6.771-4.656,6.656-6.94c-0.116-2.294-2.765-4.436-7.663-6.195
			c-0.28-0.101-0.425-0.409-0.325-0.689c0.101-0.281,0.412-0.422,0.689-0.325c5.415,1.947,8.233,4.354,8.375,7.155
			c0.037,0.746-0.126,1.494-0.471,2.236c1.512-0.135,2.756-0.06,3.788,0.154c1.012-1.383,5.841-8.384,5.323-15.322
			c-0.022-0.297,0.201-0.556,0.498-0.578c0.286-0.033,0.556,0.2,0.578,0.498c0.216,2.898-0.426,5.757-1.345,8.261
			c7.505-0.594,10.742,4.883,11.645,6.839c2.928-2.414,7.092-4.778,12.776-5.909c-3.337-1.505-7.033-2.699-11.138-4.685
			c-4.296-2.079-7.11-3.738-9.692-5.456c5.268-1.879,9.509-5.222,13.119-9.467c-0.043-0.037-0.096-0.056-0.134-0.101l-10.92-12.741
			c-1.427,1.677-3.505,3.349-6,4.98c-0.021,0.018-0.046,0.03-0.068,0.046c-3.813,2.482-8.595,4.863-13.571,7.008l4.649,11.383
			c0.225,0.55-0.039,1.18-0.59,1.405c-0.134,0.055-0.271,0.08-0.407,0.08c-0.424,0-0.827-0.253-0.997-0.67l-4.639-11.357
			c-11.165,4.635-22.724,8.005-26.007,8.615l-1.602,10.468c-0.081,0.532-0.541,0.914-1.064,0.914c-0.054,0-0.108-0.004-0.164-0.013
			c-0.588-0.089-0.992-0.64-0.902-1.228l1.534-10.022c-5.155,0.276-10.319,0.427-15.481,0.427c-7.121,0-14.24-0.276-21.34-0.798
			v15.409c0,0.064-0.026,0.119-0.036,0.18c13.336,2.34,25.527,2.183,34.941-4.032c5.169,3.321,10.859,9.467,16.377,15.78
			C339.524,429.392,339.538,429.369,339.562,429.353z"/>
		<path d="M407.233,448.742c-1.637-6.085-5.404-9.792-11.515-11.335c-9.53-2.39-17.637-2.529-24.141-0.456
			c4.044,6.493,4.804,13.109,2.205,19.616c4.636,1.07,9.151,1.026,13.138-0.408c8.483-3.051,16.437-2.366,20.486-7.159
			C407.328,448.932,407.261,448.849,407.233,448.742z"/>
		<path d="M286.068,417.482v-15.578c-9.202-0.745-18.367-1.92-27.455-3.538l-4.067,11.842c-0.029,0.086-0.076,0.159-0.123,0.232
			c10.848,7.098,21.401,9.357,31.688,7.255C286.096,417.622,286.068,417.557,286.068,417.482z"/>
		<path d="M408.225,429.77c-0.075,0-0.149-0.016-0.222-0.047c-8.299-3.753-15.556-2.491-17.358-2.083
			c1.215,2.171,1.797,4.77,1.044,7.791c1.402,0.264,2.826,0.564,4.292,0.932c6.367,1.608,10.333,5.435,12.146,11.656
			c0.41-0.641,0.781-1.338,1.074-2.156c2.08-5.799,1.605-10.738-0.759-16.155C408.372,429.738,408.302,429.77,408.225,429.77z"/>
		<path d="M435.763,346.177c-4.293-1.014-7.892-4.053-9.307-5.389c-1.171,3.584-1.855,8.318-0.732,14.07
			c0.034,0.176-0.029,0.342-0.143,0.465c2.907,2.676,6.171,4.761,11.167,5.783c2.57,0.526,4.931,0.902,7.136,1.08
			C436.932,355.054,435.878,347.294,435.763,346.177z"/>
		<path d="M460.394,355.5c-5.608,0-10.026-2.386-13.457-7.254c-0.868-1.234-1.669-2.456-2.417-3.668
			c-1.99,1.393-4.033,1.943-6.005,1.943c-0.553,0-1.098-0.055-1.637-0.133c0.264,1.816,1.685,9.053,8.174,15.462
			c0.115,0.113,0.162,0.266,0.153,0.415c5.9,0.261,10.678-1.068,15.341-5.089c0.656-0.565,1.198-1.153,1.647-1.763
			C461.582,355.467,460.979,355.5,460.394,355.5z"/>
		<path d="M425.48,340.295c-2.157-0.143-8.422-1.206-10.556-8.415c-2.007,1.756-4.445,3.381-7.227,4.218
			c-0.053,0.016-0.104,0.023-0.156,0.023c-0.232,0-0.446-0.15-0.516-0.383c-0.086-0.285,0.076-0.586,0.36-0.671
			c6.662-2.005,11.464-9.025,12.392-10.466c-0.571-0.886-1.087-2.02-1.504-3.479c-0.569,0.588-1.209,1.008-1.917,1.24
			c-0.442,0.145-0.9,0.217-1.373,0.217c-2.386,0-5.174-1.832-8.311-5.467c-0.194-0.225-0.169-0.565,0.056-0.76
			c0.225-0.191,0.564-0.171,0.761,0.056c3.399,3.939,6.348,5.645,8.532,4.931c2.173-0.712,3.649-3.884,4.085-8.705
			c-1.855-1.209-3.422-2.86-4.754-4.972c-0.279,0.137-0.556,0.277-0.851,0.378c-0.799,0.275-1.64,0.409-2.517,0.409
			c-2.798,0-5.939-1.383-9.087-4.042c-0.227-0.191-0.257-0.531-0.064-0.759c0.193-0.227,0.533-0.255,0.759-0.064
			c3.834,3.239,7.583,4.455,10.56,3.438c0.385-0.132,0.753-0.306,1.108-0.511c0.004-0.002,0.006-0.006,0.01-0.009
			c0.002-0.001,0.004-0.001,0.007-0.003c2.317-1.344,3.992-4.213,4.875-8.401c0.006-0.027,0.022-0.047,0.031-0.072
			c-6.846-2.509-13.621-5.186-18.53-8.231c0.462-10.226-1.636-20.774-7.931-31.849c-0.018,0.01-0.028,0.027-0.047,0.036
			l-12.614,6.253l3.073,29.058l17.236-2.34c0.592-0.073,1.133,0.334,1.213,0.923c0.08,0.59-0.334,1.133-0.923,1.213l-17.299,2.349
			l3.322,31.416c0.008,0.078,0.008,0.156,0,0.232c-0.025,0.224-0.127,1.125-0.298,2.522l15.616-3.69
			c0.577-0.134,1.158,0.221,1.296,0.802c0.137,0.579-0.222,1.159-0.802,1.296l-16.398,3.875c-0.844,6.551-2.567,18.627-4.997,29.327
			l16.392,1.471c0.149,0.013,0.288,0.057,0.412,0.123c4.735-8.88,7.142-17.483,6.594-25.737c3.298,2.218,6.242,4.381,10.689,8.55
			c3.32,3.112,5.756,6.127,8.352,8.698C423.557,348.621,424.279,343.892,425.48,340.295z"/>
		<path d="M223.338,386.792c-10.404-4.403-19.595-9.378-27.95-15.093c-1.678-1.117-3.296-2.242-4.886-3.372l-4.236,11.743
			c-0.071,0.196-0.197,0.351-0.348,0.471c8.509,10.852,21.435,16.583,37.42,18.765V386.792z"/>
		<path d="M92.044,400.473c-0.693,1.223-1.675,2.011-2.361,2.449c2.236,1.694,8.837,7.291,6.831,12.961
			c-0.478,1.352-1.335,2.212-2.545,2.557c-0.396,0.114-0.819,0.164-1.256,0.164c-2.924,0-6.581-2.266-8.479-3.596
			c9.835,14.121,18.08,18.591,25.205,11.653c3.54-3.447,6.874-6.706,9.107-11.349C117.59,415.267,106.254,414.44,92.044,400.473z"/>
		<path d="M83.638,413.227c0.065,0.052,6.516,5.175,10.036,4.176c0.868-0.247,1.464-0.862,1.824-1.88
			c1.934-5.467-5.821-11.287-6.977-12.116c-0.277,0.026-0.555,0.05-0.841,0.05c-5.44,0-12.293-4.578-13.786-5.622
			c0.391,0.719,0.783,1.436,1.174,2.148c2.756,5.014,5.397,9.426,7.936,13.225C83.196,413.08,83.45,413.077,83.638,413.227z"/>
		<path d="M49.407,324.591c0.076-0.003,7.7-0.403,15.518-6.152c0.005-0.003,0.01-0.004,0.014-0.007
			c0.003-0.002,0.003-0.006,0.006-0.008c4.722-3.147,6.166-6.642,4.543-10.969c-9.036-0.164-18.962-6.794-20.81-8.084
			c-0.343,9.009-0.064,17.384,0.705,25.225C49.392,324.596,49.399,324.591,49.407,324.591z"/>
		<path d="M68.458,180.773c11.057,7.48,34.015,19.843,45.967,33.079c-2.304,5.76-3.48,11.928-3.279,18.595
			c-0.712,0.064-1.442,0.168-2.189,0.313c-3.984,1.884-9.5,4.035-15.584,6.872c5.367,4.083,3.694,10.073,2.782,12.354
			c1.319-0.127,2.717,0.091,4.14,0.844c1.132-0.42,7.194-2.976,8.735-10.02c0.063-0.292,0.348-0.476,0.641-0.411
			c0.29,0.063,0.474,0.35,0.411,0.641c-1.424,6.51-6.28,9.415-8.52,10.433c3.083,1.438,6.573,1.749,9.549,0.797
			c0.284-0.09,0.587,0.066,0.677,0.349c0.091,0.283-0.065,0.587-0.349,0.678c-1.751,0.559-3.664,0.714-5.578,0.498
			c0.684,2.057,2.79,7.602,6.449,10.515c0.233,0.186,0.271,0.525,0.086,0.758c-0.185,0.233-0.523,0.272-0.757,0.086
			c-2.791-2.223-4.694-5.762-5.816-8.399c-0.098,2.158-0.603,4.854-2.244,6.951c-0.372,0.475-0.789,0.897-1.245,1.269
			c0.867,1.232,3.015,4.485,3.816,7.443l5.265,2.65c0.076-1.977,0.631-3.904,1.927-5.844c0.112-0.168,0.234-0.315,0.348-0.477
			c0.136,0.304,0.281,0.608,0.421,0.912c0.146-0.071,0.3-0.12,0.461-0.119l11.693,0.207c-2.507-10.902-3.359-23.121-2.613-37.266
			l-10.916,7.487c-0.186,0.128-0.398,0.189-0.608,0.189c-0.344,0-0.681-0.163-0.89-0.468c-0.337-0.49-0.211-1.162,0.279-1.497
			l12.402-8.507c1.561-4.962,3.119-9.522,4.785-13.77l-8.511-15.479c-0.287-0.521-0.096-1.176,0.425-1.463
			c0.522-0.286,1.177-0.095,1.464,0.425l7.663,13.937c6.393-15.375,14.629-26.661,30.592-38.428l-17.676-5.323
			c-0.57-0.173-0.892-0.773-0.721-1.343c0.172-0.569,0.775-0.888,1.343-0.722l19.318,5.818c6.875-3.906,14.042-7.215,21.453-9.921
			l-2.069-13.092c-0.093-0.588,0.308-1.139,0.896-1.232c0.588-0.094,1.14,0.308,1.233,0.895l2.006,12.691
			c7.765-2.7,15.789-4.746,24.028-6.107c1.708-0.149,3.414-0.269,5.117-0.375v-12.079c0-0.14,0.031-0.271,0.079-0.394
			c-1.795-0.694-3.572-1.206-5.33-1.535c0.068-0.241,0.146-0.485,0.221-0.728c-0.09-0.026-0.177-0.067-0.245-0.141
			c-4-4.267-12.687-2.944-15.386-2.407c1.136,1.556,1.949,3.294,2.33,5.092c0.062,0.29-0.124,0.577-0.416,0.639
			c-0.037,0.007-0.075,0.012-0.112,0.012c-0.249,0-0.473-0.174-0.527-0.427c-0.647-3.056-2.647-5.934-5.424-7.9
			c0.225,2.449,0.108,8.106-4.84,12.57c-0.103,0.093-0.232,0.139-0.361,0.139c-0.147,0-0.294-0.06-0.4-0.178
			c-0.199-0.221-0.182-0.562,0.039-0.761c5.355-4.83,4.571-11.363,4.376-12.552c-1.359-0.863-2.242-1.969-2.785-3.176
			c-1.195,1.501-4.121,4.527-8.301,4.527c-1.174,0-2.45-0.252-3.811-0.831c0.423,5.152,1.033,9.807,1.447,13.682
			c-8.767,0.088-16.179,2.517-22.34,7.108c-23.02-7.28-32.783-26.445-44.471-32.814c-12.13-6.61-24.607-11.802-24.607-11.802
			c-5.31-6.96-11.846-9.227-20.448-3.588c0,0-3.681-0.388-8.082-0.005c1.363,7.293,4.28,13.032,5.166,14.656
			c2.521-1.428,14.083-7.729,20.872-7.101c0.296,0.028,0.513,0.29,0.486,0.587c-0.028,0.296-0.286,0.5-0.587,0.486
			c-5.953-0.546-16.311,4.811-19.637,6.635c4.745,1.837,7.968,6.833,8.839,8.314c4.643-0.225,9.985-0.107,14.059,1.068
			c0.286,0.082,0.451,0.381,0.368,0.667c-0.083,0.285-0.38,0.451-0.667,0.368c-3.901-1.126-9.124-1.234-13.689-1.014
			c-0.021,0.015-0.035,0.036-0.059,0.049c-0.081,0.043-0.168,0.064-0.254,0.064c-0.099,0-0.194-0.029-0.279-0.08
			c-4.188,0.231-7.738,0.717-9.038,0.912c0.509,3.028,3.262,18.153,8.247,22.987c0.214,0.207,0.219,0.548,0.012,0.762
			c-0.106,0.109-0.246,0.164-0.387,0.164c-0.135,0-0.27-0.05-0.375-0.151c-2.444-2.37-4.344-6.912-5.735-11.424
			c-3.804-1.425-7.627-3.346-11.648-5.849c-0.189,2.047-0.417,7.739,1.92,14.361c0.099,0.28-0.048,0.588-0.329,0.687
			c-0.059,0.021-0.12,0.031-0.179,0.031c-0.222,0-0.43-0.138-0.508-0.36c-2.659-7.537-2.121-13.776-1.924-15.343
			c-0.649-0.406-2.074-1.426-2.723-2.87l-8.814-0.346c0.838,2.439,1.377,4.044,1.377,4.044s-2.772,7.787-0.693,12.061
			c2.08,4.274,9.011,6.7,9.011,6.7S56.674,172.801,68.458,180.773z M137.011,165.809c-1.015,1.002-2.037,1.987-3.005,3.027
			c-6.828,7.103-13.299,14.887-16.919,24.143C119.87,181.825,128.024,172.613,137.011,165.809z M127.049,161.884
			c-7.336,6.097-12.935,14.128-16.42,23.004c-0.525,1.262-0.973,2.554-1.391,3.864C111.112,177.909,117.663,167.705,127.049,161.884
			z M56.583,163.874c11.052,0.51,15.642-3.229,15.686-3.267c0.016-0.014,0.037-0.018,0.054-0.03c0.018-0.012,0.031-0.03,0.051-0.04
			l15.184-7.649v-14.45l-4.83-16.268c-0.085-0.285,0.078-0.585,0.364-0.67c0.286-0.083,0.586,0.079,0.67,0.363l4.737,15.957h12.254
			c0.089-2.089,0.336-10.03-0.909-13.106c-0.112-0.276,0.021-0.589,0.297-0.702c0.274-0.112,0.59,0.022,0.701,0.298
			c1.458,3.6,1.029,12.804,0.969,13.952l4.645,10.854c1.101-0.155,4.636-0.821,10.531-3.491c0.272-0.123,0.591-0.002,0.713,0.268
			c0.123,0.27,0.003,0.59-0.268,0.712c-5.888,2.668-9.441,3.38-10.729,3.565c0.515,4.85-0.087,9.574-1.794,14.058l4.66,3.64
			c0.235,0.183,0.276,0.521,0.093,0.755c-0.106,0.136-0.265,0.207-0.425,0.207c-0.116,0-0.233-0.037-0.331-0.115l-4.559-3.561
			c-4.276,5.192-11.684,7.815-14.007,8.534c1.032,1.658,3.475,6.438,2.503,13.283c-0.038,0.269-0.269,0.463-0.533,0.463
			c-0.025,0-0.051-0.002-0.076-0.005c-0.295-0.042-0.499-0.315-0.458-0.609c1.024-7.206-2.024-12.097-2.621-12.973
			c-2.97-0.841-5.716-2.137-8.25-3.829c-0.909,1.662-4.107,6.905-9.87,10.184c-0.084,0.047-0.175,0.07-0.266,0.07
			c-0.187,0-0.369-0.098-0.469-0.272c-0.147-0.259-0.057-0.587,0.202-0.734c5.555-3.16,8.698-8.386,9.498-9.844
			c-2.796-2.02-5.305-4.571-7.507-7.644c-1.457,0.98-6.343,3.616-15.961,3.173c-0.297-0.014-0.527-0.265-0.513-0.563
			C56.033,164.09,56.26,163.82,56.583,163.874z"/>
		<path d="M160.711,361.427l11.505-8.255c-7.028-6.916-12.672-14.126-17.011-21.74c-0.623-0.991-1.225-1.965-1.829-2.941
			l-9.797,6.701c-0.18,0.124-0.386,0.182-0.59,0.186c0.161,12.262,6.544,20.715,17.407,26.424
			C160.472,361.66,160.57,361.528,160.711,361.427z"/>
		<path d="M184.239,379.34l4.441-12.311c-5.509-4.017-10.464-8.12-14.896-12.33l-11.817,8.479c-0.05,0.036-0.105,0.053-0.158,0.079
			c4.398,8.901,11.394,14.867,22.397,16.31C184.216,379.491,184.212,379.415,184.239,379.34z"/>
		<path d="M142.362,333.415l9.881-6.758c-5.35-8.736-9.906-16.861-13.761-24.548l-12.361,6.128c-0.148,0.074-0.303,0.107-0.457,0.11
			c0.246,9.622,6.977,17.773,16.476,25.297C142.205,333.561,142.271,333.477,142.362,333.415z"/>
		<path d="M101.185,384.705c2.022,2.17,4.464,6.499,4.184,11.371c-0.22,3.818-2.184,7.12-5.657,9.612
			c10.87,8.173,18.828,8.545,18.924,8.548c0.132,0.004,0.247,0.061,0.338,0.143c2.988-6.932,3.571-16.953-0.9-34.706
			C117.151,380.245,112.446,382.867,101.185,384.705z"/>
		<path d="M283.536,91.399l3.978,5.347c0.027,0.036,0.038,0.076,0.055,0.116c2.265-0.99,4.659-1.937,7.21-2.824
			c-0.021-0.035-0.057-0.056-0.069-0.097c-1.886-6.175-5.858-11.853-6.793-13.139c-0.746,0.158-1.488,0.239-2.228,0.241
			C285.467,86.185,285.179,89.68,283.536,91.399z"/>
		<path d="M251.966,121.67c-13.451-18.159-25.022-25.065-28.521-26.869c0.531,2.009,1.203,6.039-1.056,8.492
			c-1.02,1.109-2.498,1.742-4.422,1.9c1.664,1.613,2.487,3.368,2.404,5.051c13.619,4.035,24.44,16.099,24.549,16.221
			c0.025,0.028,0.037,0.063,0.055,0.094c2.387-1.355,4.68-3.012,7.006-4.877C251.976,121.677,251.97,121.675,251.966,121.67z"/>
		<path d="M235.474,91.183c4.399,3.768,11.364,8.737,13.378,7.626c2.286-1.264,3.261-7.321,3.513-10.223
			c-3.954-0.086-8.86-7.162-10.703-10.055c-0.574,2.014-1.449,3.825-2.768,4.489c0.653,3.045,0.218,5.359-1.32,6.865
			C236.992,90.456,236.276,90.877,235.474,91.183z"/>
		<path d="M252.815,121.007c2.415-1.977,4.885-4.156,7.551-6.434c-0.033-0.038-0.076-0.065-0.098-0.113
			c-0.041-0.092-4.179-9.111-11.259-14.572c-0.244,0.077-0.504,0.128-0.794,0.128c-4.067,0-12.324-7.033-13.971-8.472
			c-0.973,0.219-2.024,0.318-3.106,0.319c-2.576,0-5.295-0.514-7.391-1.034c0.072,1.001-0.024,1.948-0.399,2.712
			C226.103,94.836,238.227,101.322,252.815,121.007z"/>
		<path d="M220.193,111.314c-0.023,0.076-0.029,0.155-0.056,0.23c-0.98,2.793-4.476,4.528-9.186,4.604
			c0.013,0.83-0.128,1.548-0.347,2.144c-0.216,0.591-0.559,1.134-0.966,1.647c3.924,1.596,8.065,1.691,12.08,1.764
			c6.48,0.118,13.181,0.239,18.779,6.827c0.04,0.047,0.064,0.101,0.086,0.155c1.137-0.461,2.285-0.996,3.439-1.606
			C243.004,125.965,232.829,115.112,220.193,111.314z"/>
		<path d="M289.032,80.506c1.279,1.791,4.885,7.153,6.708,13.119c0.009,0.029,0.004,0.057,0.008,0.086
			c2.632-0.887,5.411-1.718,8.378-2.47c1.052-0.267,2.072-0.535,3.066-0.805c-0.016-0.059-0.027-0.12-0.022-0.185
			c0.005-0.066,0.445-6.709-5.656-21.275C299.975,71.561,295.338,78.506,289.032,80.506z"/>
		<path d="M274.191,78.638c0.023,0.021,0.044,0.042,0.063,0.066c0.683,0.774,1.39,1.381,2.1,1.695
			c0.609,0.271,1.16,0.297,1.692,0.079c0.658-0.269,1.25-0.873,1.782-1.702c0.002-0.003,0.002-0.007,0.004-0.011
			c0.004-0.007,0.01-0.01,0.015-0.017c2.321-3.651,3.475-11.676,3.817-15.712c-3.023,0.401-5.397-2.574-6.617-4.56
			c-0.238,2.422-0.91,6.144-2.801,6.711c-1.801,0.538-3.559-1.445-4.585-2.944c-0.139,1.588-0.426,3.972-0.999,6.117
			C269.063,69.421,271.41,75.435,274.191,78.638z"/>
		<path d="M201.158,122.674c4.372-0.489,7.518-2.243,8.435-4.751c0.932-2.548-0.397-5.77-3.816-9.328
			c-4.015,1.415-9.013,2.189-11.167,2.477C196.05,113.141,199.65,118.526,201.158,122.674z"/>
		<path d="M301.063,67.462c1.71-0.916,2.188-3.737,1.375-7.941c-4.41-1.581-8.971-4.519-10.542-5.581
			c-0.561,1.306-1.997,4.339-4.056,6.561C293.528,66.128,298.574,68.793,301.063,67.462z"/>
		<path d="M266.347,259.9l-12.301-36.689c-17.812-10.102-32.023-16.05-43.417-18.17c-16.677,11.741-33.263,38.701-35.546,42.491
			l13.381,34.699c16.425,8.077,31.836,13.057,45.832,14.824c0.694-1.015,1.388-2.034,2.087-3.061
			C244.749,281.69,253.405,268.984,266.347,259.9z"/>
		<path d="M290.859,269.322c-7.878-3.116-15.328-6.063-23.016-7.854c-12.768,8.87-21.362,21.51-29.677,33.737
			c-0.688,1.012-1.373,2.019-2.057,3.02l24.144,37.001l31.617,9.573c14.588-12.19,25.198-24.838,31.542-37.605l-10.02-29.777
			C305.09,274.952,297.858,272.091,290.859,269.322z"/>
		<path d="M260.011,337.404c-8.675,13.174-18.712,24.377-29.855,33.318l5.527,18.547c6.88,2.439,14.268,4.685,22.244,6.774
			l21.006-4.209c6.535-14.542,10.47-29.3,12.016-45.063L260.011,337.404z"/>
		<path d="M316.244,169.737c-8.145-9.414-18.595-14.625-31.856-14.714c-0.001,0.069,0.013,0.137-0.001,0.207l-2.129,10.219
			c9.441,3.878,19,8.648,28.812,14.399l4.918-9.783C316.052,169.936,316.141,169.827,316.244,169.737z"/>
		<path d="M210.847,115.068c4.228-0.051,7.454-1.546,8.274-3.88c0.659-1.877-0.353-4.047-2.764-5.974
			c-1.423-0.061-3.052-0.344-4.856-0.819c-0.334,1.557-2.204,2.806-4.627,3.787C209.435,110.936,210.531,113.231,210.847,115.068z"
			/>
		<path d="M293.436,346.289c4.758,10.351,10.271,17.884,16.834,22.982l28.464-0.001l14.223-20.971v-27.764
			c-2.295-1.458-12.766-7.776-27.825-11.985C318.66,321.393,308.005,334.082,293.436,346.289z"/>
		<path d="M282.548,154.296c-10.157-9.393-22.218-10.913-35.261-8.378c0.013,0.066,0.04,0.127,0.04,0.198v12.691
			c10.864,1.088,21.776,3.074,32.87,5.972l2.081-9.988C282.319,154.594,282.422,154.434,282.548,154.296z"/>
		<path d="M213.487,128.791c0.543-3.237-3.531-6.922-4.728-7.926c-1.656,1.464-4.169,2.467-7.258,2.848
			c0.358,1.25,0.44,2.314,0.153,3.079c0.714,1.529,1.054,3.014,1.012,4.441c2.094,0.198,5.73,0.293,8.214-0.4
			c0.015-0.004,0.028-0.009,0.043-0.012C212.3,130.431,213.318,129.798,213.487,128.791z"/>
		<path d="M221.7,122.782c-3.473-0.063-7.039-0.127-10.535-1.151c1.732,1.794,3.841,4.609,3.384,7.339
			c-0.201,1.201-1.103,2.001-2.332,2.531l4.421,2.936c0.078,0.052,0.131,0.123,0.172,0.201c5.562-2.814,13.783-2.217,22.736-5.552
			C234.292,123.019,228.175,122.899,221.7,122.782z"/>
		<path d="M238.479,52.905c3.62,10.477,4.174,16.895,4.252,18.194c1.694,1.328,5.937,4.203,7.987,3.68
			c0.442-0.114,0.736-0.38,0.926-0.84c0.531-1.291,0.91-3.41,1.179-5.648c0.002-0.01,0.002-0.02,0.004-0.03
			c0.517-4.323,0.623-9.075,0.624-9.147c0-0.001,0.001-0.001,0.001-0.002c0-0.001-0.001-0.003-0.001-0.004
			c0.225-6.729-0.998-10.397-1.01-10.432c-0.004-0.013-0.002-0.026-0.005-0.039c-4.56,1.171-9.21,2.57-13.96,4.261
			C238.476,52.9,238.478,52.902,238.479,52.905z"/>
		<path d="M250.985,75.822c-2.467,0.631-6.534-2.096-8.306-3.407c-0.085,1.098-0.273,2.862-0.657,4.653
			c1.995,3.305,7.494,11.085,10.819,10.41c1.336-0.273,2.131-1.59,2.562-2.645c1.433-3.506,1.108-9.788-1.72-14.872
			c-0.262,1.734-0.601,3.312-1.044,4.388C252.324,75.116,251.751,75.626,250.985,75.822z"/>
		<path d="M266.028,73.001c-2.835,1.532-8.752-7.409-11.562-12.025c-0.075,1.778-0.235,4.583-0.554,7.278
			c2.45,3.729,3.448,8.092,3.404,11.787c1.401,2.537,5.42,8.712,8.17,8.583c1.349-0.084,2.942-1.766,4.368-3.778
			c0-0.328,0-0.519,0-0.537c0-0.297,0.241-0.538,0.539-0.538c0,0,0,0,0.001,0c0.06,0,0.114,0.016,0.168,0.034
			c1.122-1.727,2.075-3.524,2.64-4.705c-2.277-2.732-4.164-6.925-5.059-9.115C267.62,71.379,266.933,72.514,266.028,73.001z"/>
		<path d="M308.589,180.903c-8.756-5.061-17.31-9.335-25.759-12.881l6.012,17.296L308.589,180.903z"/>
		<path d="M349.043,194.042c-7.341-14.525-17.953-21.712-31.035-23.355c-0.015,0.117-0.038,0.235-0.094,0.346l-4.987,9.92
			c9.13,5.447,18.484,11.733,28.168,18.928l7.794-5.765C348.935,194.08,348.992,194.069,349.043,194.042z"/>
		<path d="M281.039,78.801c2.419,1.232,4.917,1.497,7.435,0.759c5.734-1.682,10.186-8.031,11.882-10.768
			c-0.255,0.043-0.51,0.086-0.787,0.086c-3.094,0-7.487-2.659-12.493-7.617c-0.709,0.639-1.482,1.152-2.306,1.475
			C284.613,64.674,283.738,73.989,281.039,78.801z"/>
		<path d="M277.16,44.366c-0.014,0.069-1.336,6.911-0.017,12.037c0.201,0.43,3.179,6.598,6.931,5.448
			c0.011-0.004,0.022-0.006,0.033-0.009c4.083-1.302,7.012-8.841,7.042-8.917c0,0,0,0,0-0.001c0-0.001,0-0.002,0.001-0.004
			c2.059-5.243,2.584-8.833,2.703-9.914c-5.428,0.218-10.988,0.581-16.693,1.2C277.165,44.26,277.171,44.312,277.16,44.366z"/>
		<path d="M321.755,61.301c-0.445,4.25-2.34,7.592-5.548,9.674c-2.733,1.774-5.856,2.374-8.49,2.374
			c-1.317,0-2.499-0.154-3.461-0.382c3.998,10.73,4.039,16.109,3.999,17.171c17.645-4.915,26.06-10.389,30.6-16.423
			c-0.118-0.038-0.227-0.102-0.298-0.215C338.506,73.419,334.214,66.688,321.755,61.301z"/>
		<path d="M282.687,92.064c-0.011,0.006-0.019,0.017-0.03,0.023c-0.581,0.321-1.265,0.484-2.075,0.484
			c-2.165,0-5.247-1.187-9.65-3.655c0.003,5.516,0.02,14.372,0.096,17.266c4.426-3.11,9.499-6.155,15.553-8.883L282.687,92.064z"/>
		<path d="M254.531,58.983c4.086,6.961,9.416,13.93,10.986,13.069c2.236-1.204,3.053-8.707,3.182-11.535
			c-0.455-8.767-3.615-14.361-3.646-14.417c-0.032-0.055-0.047-0.114-0.058-0.174c-3.775,0.664-7.614,1.471-11.52,2.447
			C253.619,48.811,254.729,52.437,254.531,58.983z"/>
		<path d="M253.677,88.341c1.929,4.496,5.596,10.882,8.055,10.372c3.354-0.713,7.333-4.4,8.128-5.163
			c-0.005-2.672-0.006-5.177-0.006-6.903c-1.349,1.659-2.854,2.963-4.3,3.053c-0.056,0.003-0.112,0.005-0.169,0.005
			c-3.063,0-6.561-5.073-8.189-7.739c-0.147,1.229-0.414,2.345-0.794,3.274C255.754,86.824,254.819,87.879,253.677,88.341z"/>
		<path d="M266.083,45.739c0.541,1.004,3.237,6.387,3.684,14.618c0.662,1.223,2.672,4.246,4.169,3.799
			c1.328-0.399,2.056-4.619,2.154-7.527c-1.267-4.978-0.22-11.211-0.018-12.305C272.793,44.698,269.462,45.166,266.083,45.739z"/>
		<path d="M269.961,106.569c-0.059-1.702-0.085-6.714-0.098-11.552c-1.568,1.406-4.89,4.108-7.906,4.749
			c-3.388,0.721-7.033-6.151-8.674-9.672c-0.347,2.719-1.228,7.356-3.291,9.201c6.722,5.345,10.658,13.431,11.194,14.58
			c2.703-2.293,5.614-4.668,8.883-7.019C270.009,106.774,269.965,106.679,269.961,106.569z"/>
		<path d="M311.314,182.501l-22.729,5.082c-15.801,10.825-26.725,22.587-32.488,34.968l12.357,36.856
			c7.798,1.83,15.285,4.782,23.196,7.912c6.992,2.766,14.224,5.622,22.49,8.068c16.461-7.821,30.314-20.89,41.176-38.86
			l-4.741-22.215c-3.256-4.249-6.655-8.354-10.211-12.291C330.36,194.56,320.718,188.084,311.314,182.501z"/>
		<path d="M270.932,87.681c5.935,3.385,9.403,4.457,11.204,3.463c1.904-1.051,2.234-4.553,2.476-10.154
			c-1.402-0.14-2.787-0.567-4.149-1.274c-0.591,0.83-1.257,1.452-2.009,1.759c-0.368,0.15-0.747,0.225-1.133,0.225
			c-0.458,0-0.927-0.105-1.403-0.317c-0.66-0.292-1.306-0.801-1.933-1.426c-0.553,1.123-1.67,3.254-3.053,5.245
			C270.932,85.792,270.931,86.649,270.932,87.681z"/>
	</g>
</g>
</svg>
